# xmcd CD database file
#
# Track frame offsets:
#	150
#	20575
#	41655
#	61593
#
# Disc length: 1091 seconds
#
# Revision: 0
# Processed by: cddbd v1.5.1PL0 Copyright (c) Steve Scherf et al.
# Submitted via: CDex 1.51
#
DISCID=29044104
DTITLE=Various Artist - 好き好き好き［SUKI SUKI SUKI］
DYEAR=1993
DGENRE=JPop
TTITLE0=影山ヒロノブ/好き好き好き［SUKI SUKI SUKI］
TTITLE1=影山ヒロノブ/SUKI SUKI SUKI
TTITLE2=森恵/目覚めのクロッカス
TTITLE3=好き好き好き［SUKI SUKI SUKI］（オリジナル・カラオケ）
EXTD=YEAR: 1993
EXTT0=
EXTT1=
EXTT2=
EXTT3=
PLAYORDER=
